<?xml version="1.0" encoding="UTF-8"?>
<svg id="Layer_1" data-name="Layer 1" xmlns="http://www.w3.org/2000/svg" viewBox="0 0 421.94 350.8">
  <defs>
    <style>
      .cls-1 {
        fill: #ba3e00;
      }
    </style>
  </defs>
  <path class="cls-1" d="m250.42,185.58c-5,.27-8.46,4.3-9.73,7.88-.21.65-.44,1.49-.44,1.49.24.18,2.15.91,5.72.71,4.29-.23,8.31-1.99,8.86-6.04.3-2.51-1.36-4.21-4.41-4.04Z"/>
  <path class="cls-1" d="m256.13,144.97c-4.48.25-9.32,5.56-10.66,14-.92,5.48,1.22,9.13,5.57,8.9,3.9-.21,8.1-4.6,9.54-10.62l1.38-5.51c-.19-1.65-1.02-7.04-5.82-6.77Z"/>
  <path class="cls-1" d="m311.12,114.91c-20.94-36.27-84.83-38.59-142.69-5.19-57.86,33.41-87.8,89.89-66.85,126.17,20.94,36.27,84.83,38.59,142.69,5.19,57.86-33.41,87.8-89.89,66.85-126.17Zm-77.8,14.69c4.35-.24,4.41,1.93,3.72,4.46-1.16,4.28-7.28,26.02-8.85,33.13-.47,2.26.39,2.09,2.67,1.9,1.05-.12,1.89.34,1.63,2.02-.31,2-1.11,3.32-1.11,3.32-1.51.21-4.7,1.54-7.3,1.68-4.61.25-5.35-2.71-4-7.96,1.03-4.21,8.03-30.66,8.46-33.11.24-1.48,0-2.17-.24-2.8.61-.8,2.11-2.48,5.03-2.64Zm-20.94,2.83c.84-3.42,2.9-3.92,5.43-4.04,2.53-.12,4.36.2,3.59,3.62-.83,3.36-2.89,3.86-5.36,3.98-2.6.12-4.36-.2-3.66-3.56Zm-52.55,43.3c-1.16,2.62-2.6,3.4-4.49,3.5l-5.39.3c-3.05.17-2.99-2.52-3.02-4.37-.05-2.74-.27-31.36,0-34.69.14-2.24.19-4.23,3.24-4.39l2.34-.13c2.86-.16,2.85,2.08,2.84,3.17-.18,3.59-.87,26.37-1.05,32.64l.32-.02c3.57-7.1,14.59-30.96,15.75-33.13.97-2.16,1.74-3.74,4.47-3.89l5-.27c2.6-.14,2.62,2.35,2.61,3.5-.1,3.52-.03,26.39-.06,32.46l.32-.02c3.08-6.81,13.99-31.37,14.95-33.47.91-2.22,1.46-3.53,4.06-3.67l3.64-.2c2.08-.11,1.9,1.88,1.01,3.91-2.48,5.57-15.81,32.04-17.36,35.26-.98,2.23-1.93,5.28-5.37,5.47l-5.2.28c-1.82.1-3.14-.72-2.97-3.16,0-2.68.22-25.25.05-31.82h-.26s-15.45,32.74-15.45,32.74Zm32.02,43.1l-.64,2.66c-.46,1.69-.86,2.35-3.01,2.46l-21.24,1.16c-2.86.16-3.06-1.94-2.37-4.41,2.74-10.95,5.97-23.78,8.53-34.78.57-2.59.56-4.63,3.61-4.8l3.18-.17c2.53-.14,2.41,1.98,1.82,4.18-2.01,7.52-6.82,25.99-8.03,32.19,4.81-.26,14.22-.78,16.13-1.07,1.78-.29,2.49.76,2.01,2.57Zm1.52-25.8c1.12-8.88,7.24-22.53,10.13-29.2,5.03-11.58,6.3-20.83,6.95-23.63.25-1.07,1.29-1.87,2.35-1.84,1.51.03,4.04.5,6.97-1.13,2.5-1.39-1.12,6.49-2.8,13.37-1.92,7.8-11.98,30.43-13.73,38.6-2.12,9.91,1.17,18.99,1.17,18.99,0,0-3.89,5.67-7.62,5.62-4.05-.05-5.17-7.06-3.44-20.78Zm6.05,29.87l-4.01-6.96c4.72,1.02,9.94-5.86,9.94-5.86l-4.07,12.37c-.29.87-1.45,1.15-1.86.45Zm28.13-30.12c.84-.05,1.12.32.96,1.1l-1.24,4.41c-.16.78-.46,1.18-1.24,1.22l-5.65.31c-1.11,4.41-7.21,29.72-7.7,31.66-.46,2.2-.36,4.56-3.61,4.73l-3.12.17c-2.86.16-2.23-2.37-1.65-4.45.45-1.56,7.05-27.86,7.91-31.74l-3.64.2c-.71.04-1.06-.33-.9-1.1l.69-3.04c.24-.91.81-1.32,1.49-1.62l3.93-1.05.72-2.72c1.62-5.9,4.06-10.13,12.12-10.57,3.12-.17,5.96.31,6.85.46,0,0-.17,5.7-3.94,5.9-.84.05-2.07.05-2.85.09-2.21.12-3.53,1.47-4.24,4.13l-.52,2.2,5.65-.31Zm35.16-4.1c-1.11,7.54-8.77,11.73-16.05,12.12-5.26.29-7.3-1.52-7.3-1.52l-.28.21c-.91,4.84.81,9.8,7.83,9.41,5.33-.29,9.8-3.67,9.8-3.67.96,1.1,1.34,2.23,1.09,3.77-.55,2.97-5.47,6.31-12.75,6.7-11.56.63-15.04-7.42-13.72-15.6,2.03-12,10.37-20.63,20.3-21.17,8.9-.49,11.87,4.27,11.08,9.74Zm12.02-55.97c-.6,2.27-8.45,33.05-8.98,36.34-.22,1.29.12,2.23.34,2.54-.53.67-2.48,2.37-5.01,2.51-3.31.18-4.08-2.01-2.72-5.79l-.45.02s-3.71,6.14-11.05,6.55c-6.88.38-11.46-4.99-9.64-15.76,2.02-12.44,9.79-20.66,17.78-21.1,5.91-.32,8.03,4.03,8.16,6.65l.45-.02c1.3-4.86,2.28-9.26,2.8-11.91.24-1.42-.19-2.16-.35-2.47.49-.86,2.11-2.54,4.97-2.7,4.22-.23,4.39,2.63,3.7,5.16Z"/>
</svg>